<svg xmlns="http://www.w3.org/2000/svg" version="1.1" xmlns:xlink="http://www.w3.org/1999/xlink" xmlns:svgjs="http://svgjs.dev/svgjs" width="2000" height="1512" viewBox="0 0 2000 1512"><g transform="matrix(1,0,0,1,-2.8105043944797217,-2.4387096774194106)"><svg viewBox="0 0 328 248" data-background-color="#ffffff" preserveAspectRatio="xMidYMid meet" height="1512" width="2000" xmlns="http://www.w3.org/2000/svg" xmlns:xlink="http://www.w3.org/1999/xlink"><g id="tight-bounds" transform="matrix(1,0,0,1,0.46092272069466844,0.4000000000000057)"><svg viewBox="0 0 327.07815455861066 247.2" height="247.2" width="327.07815455861066"><g><svg viewBox="0 0 327.07815455861066 247.2" height="247.2" width="327.07815455861066"><g><svg viewBox="0 0 327.07815455861066 247.2" height="247.2" width="327.07815455861066"><g id="textblocktransform"><svg viewBox="0 0 327.07815455861066 247.2" height="247.2" width="327.07815455861066" id="textblock"><g><svg viewBox="0 0 327.07815455861066 247.2" height="247.2" width="327.07815455861066"><rect width="327.07815455861066" height="247.2" x="0" y="0" opacity="1" fill="#111111" data-fill-palette-color="tertiary"></rect><g transform="matrix(1,0,0,1,23.607599999999998,23.607599999999998)"><svg width="279.8629545586107" viewBox="3.75 -34.55 48.35 34.55" height="199.9848" data-palette-color="#ffffff"><path d="M13.45-14.05L8.05-14.05 8.05 0 3.75 0 3.75-34.55 12.85-34.55Q17.95-34.55 21.3-31.83 24.65-29.1 24.65-24.25L24.65-24.25Q24.65-20.75 22.8-18.32 20.95-15.9 17.8-14.8L17.8-14.8Q20.4-11.8 27.45 0L27.45 0 22.25 0Q15.3-12 13.45-14.05L13.45-14.05ZM8.05-30.75L8.05-17.75 12.85-17.75Q16.3-17.75 18.18-19.45 20.05-21.15 20.05-24.25 20.05-27.35 18.18-29.05 16.3-30.75 12.85-30.75L12.85-30.75 8.05-30.75ZM40.3-13.35L40.3-13.35 35.5-13.35 35.5 0 31.2 0 31.2-34.55 40.3-34.55Q45.6-34.55 48.85-31.75 52.1-28.95 52.1-23.95 52.1-18.95 48.85-16.15 45.6-13.35 40.3-13.35ZM35.5-30.75L35.5-17.15 40.3-17.15Q47.5-17.15 47.5-23.95 47.5-30.75 40.3-30.75L40.3-30.75 35.5-30.75Z" opacity="1" transform="matrix(1,0,0,1,0,0)" fill="#ffffff" class="wordmark-text-0" data-fill-palette-color="quaternary" id="text-0"></path></svg></g></svg></g></svg></g></svg></g><g></g></svg></g><defs></defs></svg><rect width="327.07815455861066" height="247.2" fill="none" stroke="none" visibility="hidden"></rect></g></svg></g></svg>